<mxfile host="app.diagrams.net" modified="2023-04-03T17:34:13.244Z" agent="Mozilla/5.0 (Windows NT 10.0; Win64; x64) AppleWebKit/537.36 (KHTML, like Gecko) Chrome/111.0.0.0 Safari/537.36" etag="9-a-KxYaQ_BwyagBkuQA" version="21.1.4" type="device">
  <diagram name="Page-1" id="PPO3RJ7NxxnXQjuUk42D">
    <mxGraphModel dx="1877" dy="541" grid="0" gridSize="10" guides="1" tooltips="1" connect="1" arrows="1" fold="1" page="1" pageScale="1" pageWidth="827" pageHeight="1169" math="0" shadow="0">
      <root>
        <mxCell id="0" />
        <mxCell id="1" parent="0" />
        <mxCell id="NedRgk-39NuwpTNiCJw0-1" value="&amp;lt;&amp;lt;Executable&amp;gt;&amp;gt;&lt;br&gt;Serveur Web" style="shape=module;align=left;spacingLeft=20;align=center;verticalAlign=top;whiteSpace=wrap;html=1;" vertex="1" parent="1">
          <mxGeometry x="331" y="253" width="115" height="46" as="geometry" />
        </mxCell>
        <mxCell id="NedRgk-39NuwpTNiCJw0-2" value="&amp;lt;&amp;lt;Executable&amp;gt;&amp;gt;&lt;br&gt;Navigateur Web" style="shape=module;align=left;spacingLeft=20;align=center;verticalAlign=top;whiteSpace=wrap;html=1;" vertex="1" parent="1">
          <mxGeometry x="527" y="255" width="123" height="42" as="geometry" />
        </mxCell>
        <mxCell id="NedRgk-39NuwpTNiCJw0-3" value="" style="shape=providedRequiredInterface;html=1;verticalLabelPosition=bottom;sketch=0;" vertex="1" parent="1">
          <mxGeometry x="470" y="266" width="20" height="20" as="geometry" />
        </mxCell>
        <mxCell id="NedRgk-39NuwpTNiCJw0-6" value="" style="endArrow=none;html=1;rounded=0;entryX=0.069;entryY=0.498;entryDx=0;entryDy=0;entryPerimeter=0;exitX=1;exitY=0.5;exitDx=0;exitDy=0;exitPerimeter=0;" edge="1" parent="1" source="NedRgk-39NuwpTNiCJw0-3" target="NedRgk-39NuwpTNiCJw0-2">
          <mxGeometry width="50" height="50" relative="1" as="geometry">
            <mxPoint x="405" y="414.5" as="sourcePoint" />
            <mxPoint x="455" y="364.5" as="targetPoint" />
          </mxGeometry>
        </mxCell>
        <mxCell id="NedRgk-39NuwpTNiCJw0-8" value="" style="endArrow=none;html=1;rounded=0;exitX=1;exitY=0.5;exitDx=0;exitDy=0;entryX=0;entryY=0.5;entryDx=0;entryDy=0;entryPerimeter=0;" edge="1" parent="1" source="NedRgk-39NuwpTNiCJw0-1" target="NedRgk-39NuwpTNiCJw0-3">
          <mxGeometry width="50" height="50" relative="1" as="geometry">
            <mxPoint x="393" y="275.5" as="sourcePoint" />
            <mxPoint x="421" y="267.5" as="targetPoint" />
          </mxGeometry>
        </mxCell>
        <mxCell id="NedRgk-39NuwpTNiCJw0-9" value="&amp;lt;&amp;lt;File&amp;gt;&amp;gt;&lt;br&gt;Index.jsp" style="shape=module;align=left;spacingLeft=20;align=center;verticalAlign=top;whiteSpace=wrap;html=1;" vertex="1" parent="1">
          <mxGeometry x="743" y="158.5" width="137" height="49" as="geometry" />
        </mxCell>
        <mxCell id="NedRgk-39NuwpTNiCJw0-10" value="&amp;lt;&amp;lt;File&amp;gt;&amp;gt;&lt;br&gt;AdminPage_Users.jsp" style="shape=module;align=left;spacingLeft=20;align=center;verticalAlign=top;whiteSpace=wrap;html=1;" vertex="1" parent="1">
          <mxGeometry x="739" y="231.5" width="137" height="49" as="geometry" />
        </mxCell>
        <mxCell id="NedRgk-39NuwpTNiCJw0-11" value="&amp;lt;&amp;lt;File&amp;gt;&amp;gt;&lt;br&gt;Connexion.jsp" style="shape=module;align=left;spacingLeft=20;align=center;verticalAlign=top;whiteSpace=wrap;html=1;" vertex="1" parent="1">
          <mxGeometry x="743" y="305" width="137" height="49" as="geometry" />
        </mxCell>
        <mxCell id="NedRgk-39NuwpTNiCJw0-16" value="Use" style="endArrow=open;endSize=12;dashed=1;html=1;rounded=0;entryX=0;entryY=0;entryDx=0;entryDy=15;entryPerimeter=0;exitX=1;exitY=0;exitDx=0;exitDy=0;" edge="1" parent="1" source="NedRgk-39NuwpTNiCJw0-2" target="NedRgk-39NuwpTNiCJw0-9">
          <mxGeometry width="160" relative="1" as="geometry">
            <mxPoint x="531" y="326" as="sourcePoint" />
            <mxPoint x="691" y="326" as="targetPoint" />
          </mxGeometry>
        </mxCell>
        <mxCell id="NedRgk-39NuwpTNiCJw0-18" value="Use" style="endArrow=open;endSize=12;dashed=1;html=1;rounded=0;entryX=0.048;entryY=0.478;entryDx=0;entryDy=0;entryPerimeter=0;exitX=1;exitY=0.25;exitDx=0;exitDy=0;" edge="1" parent="1" source="NedRgk-39NuwpTNiCJw0-2" target="NedRgk-39NuwpTNiCJw0-10">
          <mxGeometry width="160" relative="1" as="geometry">
            <mxPoint x="692" y="219" as="sourcePoint" />
            <mxPoint x="741" y="132" as="targetPoint" />
          </mxGeometry>
        </mxCell>
        <mxCell id="NedRgk-39NuwpTNiCJw0-20" value="Use" style="endArrow=open;endSize=12;dashed=1;html=1;rounded=0;entryX=0;entryY=0;entryDx=0;entryDy=15;entryPerimeter=0;exitX=1;exitY=1;exitDx=0;exitDy=0;" edge="1" parent="1" source="NedRgk-39NuwpTNiCJw0-2" target="NedRgk-39NuwpTNiCJw0-11">
          <mxGeometry width="160" relative="1" as="geometry">
            <mxPoint x="692" y="259" as="sourcePoint" />
            <mxPoint x="747" y="279" as="targetPoint" />
          </mxGeometry>
        </mxCell>
        <mxCell id="NedRgk-39NuwpTNiCJw0-21" value="&amp;lt;&amp;lt;File&amp;gt;&amp;gt;&lt;br&gt;Page_User.jsp" style="shape=module;align=left;spacingLeft=20;align=center;verticalAlign=top;whiteSpace=wrap;html=1;" vertex="1" parent="1">
          <mxGeometry x="747" y="379" width="137" height="49" as="geometry" />
        </mxCell>
        <mxCell id="NedRgk-39NuwpTNiCJw0-22" value="Use" style="endArrow=open;endSize=12;dashed=1;html=1;rounded=0;entryX=0;entryY=0;entryDx=0;entryDy=15;entryPerimeter=0;exitX=1;exitY=1;exitDx=0;exitDy=0;" edge="1" parent="1" source="NedRgk-39NuwpTNiCJw0-2" target="NedRgk-39NuwpTNiCJw0-21">
          <mxGeometry x="0.0422" y="-4" width="160" relative="1" as="geometry">
            <mxPoint x="645" y="291" as="sourcePoint" />
            <mxPoint x="755" y="345" as="targetPoint" />
            <mxPoint as="offset" />
          </mxGeometry>
        </mxCell>
        <mxCell id="NedRgk-39NuwpTNiCJw0-24" value="&amp;lt;&amp;lt;File&amp;gt;&amp;gt;&lt;br&gt;servlet_deconnexion.java" style="shape=module;align=left;spacingLeft=20;align=center;verticalAlign=top;whiteSpace=wrap;html=1;" vertex="1" parent="1">
          <mxGeometry x="118" y="158.5" width="163" height="42" as="geometry" />
        </mxCell>
        <mxCell id="NedRgk-39NuwpTNiCJw0-25" value="&amp;lt;&amp;lt;File&amp;gt;&amp;gt;&lt;br&gt;servlet_connexion.java" style="shape=module;align=left;spacingLeft=20;align=center;verticalAlign=top;whiteSpace=wrap;html=1;" vertex="1" parent="1">
          <mxGeometry x="118" y="257" width="163" height="42" as="geometry" />
        </mxCell>
        <mxCell id="NedRgk-39NuwpTNiCJw0-26" value="&amp;lt;&amp;lt;File&amp;gt;&amp;gt;&lt;br&gt;servlet_admin.java" style="shape=module;align=left;spacingLeft=20;align=center;verticalAlign=top;whiteSpace=wrap;html=1;" vertex="1" parent="1">
          <mxGeometry x="116" y="354" width="163" height="42" as="geometry" />
        </mxCell>
        <mxCell id="NedRgk-39NuwpTNiCJw0-27" value="&amp;lt;&amp;lt;Database&amp;gt;&amp;gt;&lt;br&gt;bd.db" style="shape=module;align=left;spacingLeft=20;align=center;verticalAlign=top;whiteSpace=wrap;html=1;" vertex="1" parent="1">
          <mxGeometry x="-102" y="257" width="137" height="49" as="geometry" />
        </mxCell>
        <mxCell id="NedRgk-39NuwpTNiCJw0-28" value="Use" style="endArrow=open;endSize=12;dashed=1;html=1;rounded=0;entryX=1;entryY=0.5;entryDx=0;entryDy=0;exitX=0;exitY=0;exitDx=10;exitDy=0;exitPerimeter=0;" edge="1" parent="1" source="NedRgk-39NuwpTNiCJw0-1" target="NedRgk-39NuwpTNiCJw0-24">
          <mxGeometry width="160" relative="1" as="geometry">
            <mxPoint x="328" y="251" as="sourcePoint" />
            <mxPoint x="503" y="83" as="targetPoint" />
          </mxGeometry>
        </mxCell>
        <mxCell id="NedRgk-39NuwpTNiCJw0-32" value="Use" style="endArrow=open;endSize=12;dashed=1;html=1;rounded=0;entryX=1;entryY=0.5;entryDx=0;entryDy=0;exitX=0.07;exitY=0.504;exitDx=0;exitDy=0;exitPerimeter=0;" edge="1" parent="1" source="NedRgk-39NuwpTNiCJw0-1" target="NedRgk-39NuwpTNiCJw0-25">
          <mxGeometry width="160" relative="1" as="geometry">
            <mxPoint x="351" y="263" as="sourcePoint" />
            <mxPoint x="291" y="190" as="targetPoint" />
          </mxGeometry>
        </mxCell>
        <mxCell id="NedRgk-39NuwpTNiCJw0-33" value="Use" style="endArrow=open;endSize=12;dashed=1;html=1;rounded=0;entryX=1;entryY=0.5;entryDx=0;entryDy=0;exitX=0;exitY=1;exitDx=10;exitDy=0;exitPerimeter=0;" edge="1" parent="1" source="NedRgk-39NuwpTNiCJw0-1" target="NedRgk-39NuwpTNiCJw0-26">
          <mxGeometry width="160" relative="1" as="geometry">
            <mxPoint x="349" y="286" as="sourcePoint" />
            <mxPoint x="289" y="288" as="targetPoint" />
          </mxGeometry>
        </mxCell>
        <mxCell id="NedRgk-39NuwpTNiCJw0-34" value="" style="shape=providedRequiredInterface;html=1;verticalLabelPosition=bottom;sketch=0;" vertex="1" parent="1">
          <mxGeometry x="67" y="271.5" width="20" height="20" as="geometry" />
        </mxCell>
        <mxCell id="NedRgk-39NuwpTNiCJw0-35" value="" style="endArrow=none;html=1;rounded=0;entryX=1;entryY=0.5;entryDx=0;entryDy=0;exitX=0;exitY=0.5;exitDx=0;exitDy=0;exitPerimeter=0;" edge="1" parent="1" source="NedRgk-39NuwpTNiCJw0-34" target="NedRgk-39NuwpTNiCJw0-27">
          <mxGeometry width="50" height="50" relative="1" as="geometry">
            <mxPoint x="62" y="276" as="sourcePoint" />
            <mxPoint x="480" y="286" as="targetPoint" />
          </mxGeometry>
        </mxCell>
        <mxCell id="NedRgk-39NuwpTNiCJw0-36" value="" style="endArrow=none;html=1;rounded=0;entryX=1;entryY=0.5;entryDx=0;entryDy=0;exitX=0.031;exitY=0.59;exitDx=0;exitDy=0;exitPerimeter=0;entryPerimeter=0;" edge="1" parent="1" source="NedRgk-39NuwpTNiCJw0-25" target="NedRgk-39NuwpTNiCJw0-34">
          <mxGeometry width="50" height="50" relative="1" as="geometry">
            <mxPoint x="73" y="288" as="sourcePoint" />
            <mxPoint x="45" y="292" as="targetPoint" />
          </mxGeometry>
        </mxCell>
      </root>
    </mxGraphModel>
  </diagram>
</mxfile>
